<?xml version="1.0" encoding="UTF-8"?><svg id="Layer_1" xmlns="http://www.w3.org/2000/svg" viewBox="0 0 1024 1024"><defs><style>.cls-1{stroke-width:9px;}.cls-1,.cls-2,.cls-3,.cls-4,.cls-5,.cls-6,.cls-7,.cls-8,.cls-9,.cls-10,.cls-11,.cls-12,.cls-13,.cls-14{stroke-miterlimit:10;}.cls-1,.cls-2,.cls-3,.cls-4,.cls-5,.cls-8,.cls-11{fill:#f8fcfc;}.cls-1,.cls-2,.cls-3,.cls-4,.cls-6,.cls-7,.cls-8,.cls-9,.cls-10,.cls-12{stroke:#000;}.cls-15,.cls-16,.cls-17,.cls-18{stroke-width:0px;}.cls-15,.cls-6,.cls-12{fill:#fe3c69;}.cls-2,.cls-11{stroke-width:3px;}.cls-3{stroke-width:14px;}.cls-4,.cls-7,.cls-10,.cls-13{stroke-width:8px;}.cls-5,.cls-11{stroke:#21a3be;}.cls-5,.cls-14{stroke-width:4px;}.cls-6,.cls-9{stroke-width:6px;}.cls-7,.cls-9,.cls-17,.cls-13,.cls-14{fill:#21a3be;}.cls-8{stroke-width:10px;}.cls-10{fill:#034b75;}.cls-12{stroke-width:12px;}.cls-13,.cls-14{stroke:#f8fcfc;}.cls-18{fill:#ffb954;}</style></defs><rect class="cls-3" x="332.37" y="518.94" width="359.25" height="208.26" rx="40.32" ry="40.32"/><path class="cls-17" d="M392.39,590.91v83.06s42.85,0,42.85-20.76-10.71-20.76-10.71-20.76c0,0,10.71,0,10.71-20.76s-42.85-20.76-42.85-20.76Z"/><path class="cls-15" d="M391.51,591.61v82.88s41.44,0,41.44-20.72-10.36-20.72-10.36-20.72c0,0,10.36,0,10.36-20.72s-41.44-20.72-41.44-20.72Z"/><path class="cls-16" d="M417.13,632.76c5.97-2.75,10.96-7.35,10.96-15.01,0-19.14-31.08-19.14-31.08-19.14v68.29s31.08,0,31.08-19.14c0-7.66-4.98-12.25-10.96-15.01Z"/><path class="cls-5" d="M402.72,605.06v21.18s18.47,0,18.47-10.59-18.47-10.59-18.47-10.59Z"/><path class="cls-5" d="M402.72,636.87v21.18s18.47,0,18.47-10.59-18.47-10.59-18.47-10.59Z"/><polygon class="cls-17" points="483.08 603.84 472.32 603.84 456.18 674.49 458.45 674.49 461.56 674.49 466.94 674.49 472.32 656.83 483.08 656.83 488.46 674.49 493.83 674.49 496.47 674.49 499.21 674.49 483.08 603.84"/><polygon class="cls-15" points="484.01 591.61 471.38 591.61 452.45 674.49 455.12 674.49 458.76 674.49 465.07 674.49 471.38 653.77 484.01 653.77 490.32 674.49 496.63 674.49 499.72 674.49 502.94 674.49 484.01 591.61"/><polygon class="cls-16" points="479.23 598.31 476.17 598.31 458.76 674.49 465.07 674.49 470.04 653.77 485.31 653.77 490.32 674.49 496.63 674.49 479.23 598.31"/><polygon class="cls-11" points="472.06 646.19 483.33 646.19 477.7 614.26 477.69 614.26 472.06 646.19"/><polyline class="cls-17" points="465.07 674.49 466.94 674.49 472.32 656.83 483.08 656.83 488.46 674.49 490.32 674.49 485.31 653.77 470.04 653.77"/><path class="cls-17" d="M520.78,591.61v82.88h9.99v-41.44h7.64l16.58,41.44h12.62l-17.91-41.44s12.62-10.36,12.62-20.72c0-13.61-10.85-20.72-22.58-20.72h-18.95Z"/><path class="cls-15" d="M520.17,591.61v82.88h12.62v-41.44h8.11l17.12,41.44h12.62l-18.92-41.44s12.62-10.36,12.62-20.72c0-13.61-10.85-20.72-22.58-20.72h-21.58Z"/><path class="cls-16" d="M525.58,596.21v78.29h7.25v-41.44h8.06l17.12,41.44h6.31l-17.51-41.44s12.27-9.67,12.27-18.29c0-11.33-9.03-18.55-18.79-18.55h-14.71Z"/><path class="cls-11" d="M532.31,605.06v17.08s18.13,0,18.13-8.54-18.13-8.54-18.13-8.54Z"/><path class="cls-15" d="M587.87,613.6v42.24s.59,20.86,23.31,20.86,23.31-20.86,23.31-20.86v-42.24s.65-21.99-23.31-21.99-23.31,21.99-23.31,21.99Z"/><path class="cls-16" d="M594.8,617.28v34.67s.41,17.12,16.38,17.12,16.38-17.12,16.38-17.12v-34.67s.46-18.05-16.38-18.05-16.38,18.05-16.38,18.05Z"/><path class="cls-5" d="M602.42,620.85v27.33s.22,13.5,8.76,13.5,8.76-13.5,8.76-13.5v-27.33s.24-14.23-8.76-14.23-8.76,14.23-8.76,14.23Z"/><path class="cls-8" d="M625.72,418.27h98.05l-38.81,66.57v13.61s14.46,3.19,14.46,13.39h-51.02s4.04-13.68,16.37-13.68v-14.17l-39.04-65.72Z"/><polygon class="cls-17" points="645.7 428.81 703.85 428.81 680.39 473.49 670.75 473.49 645.7 428.81"/><polygon class="cls-15" points="654.54 444.57 695.57 444.57 680.39 473.49 670.75 473.49 654.54 444.57"/><path class="cls-2" d="M703.85,406.74l43.48,25.44s17.15-27.69-4.07-39.32c-16.34-8.96-19.99-7.4-39.42,13.88Z"/><path class="cls-18" d="M709.74,408.4l32.21,18.83s14-19.37-1.83-28.91c-12.19-7.35-15.06-5.9-30.38,10.08Z"/><polygon class="cls-16" points="657.96 444.57 664.83 444.57 676.95 359.79 669.6 359.14 657.96 444.57"/><polygon class="cls-16" points="713.52 407.96 717.85 403.38 725.1 413.36 723.65 414.97 713.52 407.96"/><polygon class="cls-16" points="720.63 401.71 727.06 397.8 728.04 410.77 726.55 412.14 720.63 401.71"/><polygon class="cls-16" points="729.49 396.98 736.44 398.96 732 408.43 730.01 408.82 729.49 396.98"/><polygon class="cls-16" points="740.25 425.69 742.9 419.97 730.95 416.92 729.98 418.87 740.25 425.69"/><polygon class="cls-16" points="744.01 417.53 745.28 411.86 733.06 413.04 732.34 414.93 744.01 417.53"/><polygon class="cls-16" points="744.66 409.33 739.87 402.4 732.97 410.12 733.14 412.14 744.66 409.33"/><rect class="cls-12" x="334.94" y="414.94" width="273.19" height="131.94" rx="38.62" ry="38.62"/><rect class="cls-1" x="263.59" y="513.08" width="496.81" height="38.51"/><rect class="cls-1" x="434.75" y="418.27" width="79.16" height="91.12"/><path class="cls-7" d="M362.82,415.11s-20.14,2.61-19.86,38.45c.26,33.51,0,33.51,0,33.51h47.61v-33.41s1.57-38.07-16.76-38.07l-11-.48Z"/><rect class="cls-10" x="342.96" y="487.07" width="47.65" height="19.72"/><circle class="cls-13" cx="368.13" cy="438.92" r="16.8"/><path class="cls-7" d="M585.84,417.99s20.14,2.61,19.86,38.45c-.26,33.51,0,33.51,0,33.51h-47.61v-33.41s-1.57-38.07,16.76-38.07l11-.48Z"/><rect class="cls-10" x="558.06" y="489.95" width="47.65" height="19.72" transform="translate(1163.76 999.63) rotate(180)"/><circle class="cls-13" cx="580.53" cy="441.8" r="16.8"/><circle class="cls-6" cx="474.33" cy="483.78" r="12.94"/><rect class="cls-7" x="450.62" y="364.25" width="47.43" height="54.7"/><polygon class="cls-9" points="507.16 399.72 473.09 419.9 473.09 427.08 507.16 440 507.16 399.72"/><polygon class="cls-9" points="441.5 399.72 475.58 419.9 475.58 427.08 441.5 440 441.5 399.72"/><circle class="cls-6" cx="473.09" cy="422.31" r="12.94"/><rect class="cls-4" x="405.63" y="273.06" width="137.41" height="108.02" rx="26.11" ry="26.11"/><rect class="cls-17" x="423.88" y="287.93" width="100.9" height="78.27" rx="18.21" ry="18.21"/><circle class="cls-14" cx="500.42" cy="313.47" r="11.58"/><circle class="cls-14" cx="449.3" cy="313.47" r="11.58"/></svg>